<svg width="53" height="58" viewBox="0 0 53 58" fill="none" xmlns="http://www.w3.org/2000/svg">
<g style="mix-blend-mode:soft-light" filter="url(#filter0_d_269_507)">
<path d="M37.8159 31.2549L41.2437 29.0137L46.4731 32.0679C47.3667 32.5952 48.0039 33.0859 48.3848 33.54C48.7656 33.9795 48.9561 34.4995 48.9561 35.1001C48.9561 35.7153 48.7656 36.25 48.3848 36.7041C48.0039 37.1436 47.3667 37.627 46.4731 38.1543L29.2905 48.1299C28.7632 48.4375 28.2725 48.6646 27.8184 48.811C27.3789 48.9575 26.9395 49.0308 26.5 49.0308C26.0459 49.0308 25.5991 48.9575 25.1597 48.811C24.7202 48.6646 24.2368 48.4375 23.7095 48.1299L6.50488 38.1543C5.62598 37.627 4.99609 37.1436 4.61523 36.7041C4.23438 36.25 4.04395 35.7153 4.04395 35.1001C4.04395 34.4995 4.23438 33.9795 4.61523 33.54C4.99609 33.0859 5.62598 32.5952 6.50488 32.0679L11.998 28.8818L15.6895 30.9692L8.79004 34.9023C8.6875 34.9609 8.63623 35.0269 8.63623 35.1001C8.63623 35.188 8.6875 35.2612 8.79004 35.3198L25.5112 44.8999C25.8774 45.105 26.207 45.2075 26.5 45.2075C26.7783 45.2075 27.1006 45.105 27.4668 44.8999L44.188 35.3198C44.3052 35.2612 44.3638 35.188 44.3638 35.1001C44.3638 35.0269 44.3052 34.9609 44.188 34.9023L37.8159 31.2549ZM37.3325 20.8618L40.7383 18.5986L46.4731 21.9385C47.3667 22.4658 48.0039 22.9565 48.3848 23.4106C48.7656 23.8647 48.9561 24.3921 48.9561 24.9927C48.9561 25.5933 48.7656 26.1206 48.3848 26.5747C48.0039 27.0288 47.3667 27.5122 46.4731 28.0249L29.2905 38.0225C28.7632 38.3301 28.2725 38.5571 27.8184 38.7036C27.3789 38.8501 26.9395 38.9233 26.5 38.9233C26.0459 38.9233 25.5991 38.8501 25.1597 38.7036C24.7202 38.5571 24.2368 38.3301 23.7095 38.0225L6.50488 28.0249C5.62598 27.5122 4.99609 27.0288 4.61523 26.5747C4.23438 26.1206 4.04395 25.5933 4.04395 24.9927C4.04395 24.3921 4.23438 23.8647 4.61523 23.4106C4.99609 22.9565 5.62598 22.4658 6.50488 21.9385L12.6792 18.3789L16.1948 20.5322L8.79004 24.7729C8.6875 24.8315 8.63623 24.9048 8.63623 24.9927C8.63623 25.0806 8.6875 25.1538 8.79004 25.2124L25.5112 34.7705C25.8774 34.9756 26.207 35.0781 26.5 35.0781C26.7783 35.0781 27.1006 34.9756 27.4668 34.7705L44.188 25.2124C44.3052 25.1538 44.3638 25.0806 44.3638 24.9927C44.3638 24.9048 44.3052 24.8315 44.188 24.7729L37.3325 20.8618ZM26.5 28.0908C26.0459 28.0908 25.5991 28.0176 25.1597 27.8711C24.7202 27.7246 24.2368 27.4976 23.7095 27.1899L6.50488 17.2144C5.62598 16.687 4.99609 16.2036 4.61523 15.7642C4.23438 15.3101 4.04395 14.7754 4.04395 14.1602C4.04395 13.5596 4.23438 13.0396 4.61523 12.6001C4.99609 12.146 5.62598 11.6553 6.50488 11.1279L23.7095 1.15234C24.2368 0.844727 24.7202 0.617676 25.1597 0.471191C25.5991 0.324707 26.0459 0.251465 26.5 0.251465C26.9395 0.251465 27.3789 0.324707 27.8184 0.471191C28.2725 0.617676 28.7632 0.844727 29.2905 1.15234L46.4731 11.1279C47.3667 11.6553 48.0039 12.146 48.3848 12.6001C48.7656 13.0396 48.9561 13.5596 48.9561 14.1602C48.9561 14.7754 48.7656 15.3101 48.3848 15.7642C48.0039 16.2036 47.3667 16.687 46.4731 17.2144L29.2905 27.1899C28.7632 27.4976 28.2725 27.7246 27.8184 27.8711C27.3789 28.0176 26.9395 28.0908 26.5 28.0908Z" fill="white"/>
</g>
<defs>
<filter id="filter0_d_269_507" x="0.0439453" y="0.251465" width="52.9121" height="56.7793" filterUnits="userSpaceOnUse" color-interpolation-filters="sRGB">
<feFlood flood-opacity="0" result="BackgroundImageFix"/>
<feColorMatrix in="SourceAlpha" type="matrix" values="0 0 0 0 0 0 0 0 0 0 0 0 0 0 0 0 0 0 127 0" result="hardAlpha"/>
<feOffset dy="4"/>
<feGaussianBlur stdDeviation="2"/>
<feComposite in2="hardAlpha" operator="out"/>
<feColorMatrix type="matrix" values="0 0 0 0 0 0 0 0 0 0 0 0 0 0 0 0 0 0 0.25 0"/>
<feBlend mode="normal" in2="BackgroundImageFix" result="effect1_dropShadow_269_507"/>
<feBlend mode="normal" in="SourceGraphic" in2="effect1_dropShadow_269_507" result="shape"/>
</filter>
</defs>
</svg>
