<svg width="48" height="50" viewBox="0 0 48 50" fill="none" xmlns="http://www.w3.org/2000/svg">
<g style="mix-blend-mode:soft-light" filter="url(#filter0_d_269_509)">
<path d="M10.1792 41.4824C6.59033 41.4824 4.7959 40.3105 4.7959 37.9668C4.7959 36.5312 5.23535 35.0005 6.11426 33.3745C6.99316 31.7485 8.26025 30.2178 9.91553 28.7822C11.5854 27.332 13.5996 26.1528 15.958 25.2446C18.3311 24.3364 21.0117 23.8823 24 23.8823C26.9736 23.8823 29.6396 24.3364 31.998 25.2446C34.3711 26.1528 36.3853 27.332 38.0405 28.7822C39.7104 30.2178 40.9849 31.7485 41.8638 33.3745C42.7427 35.0005 43.1821 36.5312 43.1821 37.9668C43.1821 40.3105 41.3877 41.4824 37.7988 41.4824H10.1792ZM9.14648 38.1646H38.8535C39.1318 38.1646 39.3296 38.1206 39.4468 38.0327C39.5786 37.9448 39.6445 37.7837 39.6445 37.5493C39.6445 36.6411 39.3003 35.6011 38.6118 34.4292C37.938 33.2573 36.9346 32.1221 35.6016 31.0234C34.2686 29.9248 32.6279 29.0166 30.6797 28.2988C28.7461 27.5664 26.5195 27.2002 24 27.2002C21.4805 27.2002 19.2466 27.5664 17.2983 28.2988C15.3501 29.0166 13.7095 29.9248 12.3765 31.0234C11.0435 32.1221 10.0327 33.2573 9.34424 34.4292C8.67041 35.6011 8.3335 36.6411 8.3335 37.5493C8.3335 37.7837 8.39209 37.9448 8.50928 38.0327C8.64111 38.1206 8.85352 38.1646 9.14648 38.1646ZM24 21.1357C22.2568 21.1357 20.6675 20.6743 19.2319 19.7515C17.7964 18.8286 16.6465 17.5908 15.7822 16.0381C14.9326 14.4707 14.5078 12.7495 14.5078 10.8745C14.5078 9.01416 14.9326 7.32227 15.7822 5.79883C16.6465 4.27539 17.7964 3.05957 19.2319 2.15137C20.6675 1.24316 22.2568 0.789062 24 0.789062C25.7578 0.789062 27.3545 1.23584 28.79 2.12939C30.2256 3.02295 31.3682 4.23145 32.2178 5.75488C33.0674 7.26367 33.4922 8.95557 33.4922 10.8306C33.4922 12.7202 33.0601 14.4487 32.1958 16.0161C31.3462 17.5688 30.2036 18.814 28.7681 19.7515C27.3325 20.6743 25.7432 21.1357 24 21.1357ZM24 17.8179C25.084 17.8179 26.0728 17.5103 26.9663 16.895C27.8745 16.2651 28.5996 15.4229 29.1416 14.3682C29.6836 13.2988 29.9546 12.1196 29.9546 10.8306C29.9546 9.55615 29.6836 8.41357 29.1416 7.40283C28.6143 6.37744 27.8965 5.57178 26.9883 4.98584C26.0947 4.3999 25.0986 4.10693 24 4.10693C22.916 4.10693 21.9199 4.40723 21.0117 5.00781C20.1182 5.59375 19.4004 6.39941 18.8584 7.4248C18.3164 8.4502 18.0454 9.6001 18.0454 10.8745C18.0454 12.1636 18.3164 13.3354 18.8584 14.3901C19.415 15.4448 20.1401 16.2798 21.0337 16.895C21.9419 17.5103 22.9307 17.8179 24 17.8179Z" fill="white"/>
</g>
<defs>
<filter id="filter0_d_269_509" x="0.795898" y="0.789062" width="46.3862" height="48.6934" filterUnits="userSpaceOnUse" color-interpolation-filters="sRGB">
<feFlood flood-opacity="0" result="BackgroundImageFix"/>
<feColorMatrix in="SourceAlpha" type="matrix" values="0 0 0 0 0 0 0 0 0 0 0 0 0 0 0 0 0 0 127 0" result="hardAlpha"/>
<feOffset dy="4"/>
<feGaussianBlur stdDeviation="2"/>
<feComposite in2="hardAlpha" operator="out"/>
<feColorMatrix type="matrix" values="0 0 0 0 0 0 0 0 0 0 0 0 0 0 0 0 0 0 0.25 0"/>
<feBlend mode="normal" in2="BackgroundImageFix" result="effect1_dropShadow_269_509"/>
<feBlend mode="normal" in="SourceGraphic" in2="effect1_dropShadow_269_509" result="shape"/>
</filter>
</defs>
</svg>
