<svg width="53" height="54" viewBox="0 0 53 54" fill="none" xmlns="http://www.w3.org/2000/svg">
<g style="mix-blend-mode:soft-light" filter="url(#filter0_d_269_508)">
<path d="M26.5 44.3174C24.9766 44.3174 23.541 43.79 22.1934 42.7354C20.8604 41.6807 19.6812 40.2012 18.6558 38.2969C17.645 36.3926 16.8467 34.1587 16.2607 31.5952C15.6895 29.0171 15.4038 26.2119 15.4038 23.1797C15.4038 20.1475 15.6895 17.3423 16.2607 14.7642C16.8467 12.1714 17.645 9.92285 18.6558 8.01855C19.6665 6.09961 20.8384 4.61279 22.1714 3.55811C23.519 2.50342 24.9619 1.97607 26.5 1.97607C28.0381 1.97607 29.4736 2.50342 30.8066 3.55811C32.1543 4.61279 33.3335 6.09961 34.3442 8.01855C35.3696 9.92285 36.168 12.1714 36.7393 14.7642C37.3105 17.3423 37.5962 20.1475 37.5962 23.1797C37.5962 26.2119 37.3032 29.0171 36.7173 31.5952C36.146 34.1587 35.3477 36.3926 34.3223 38.2969C33.3115 40.2012 32.1323 41.6807 30.7847 42.7354C29.4517 43.79 28.0234 44.3174 26.5 44.3174ZM26.5 4.63477C25.4307 4.63477 24.4053 5.13281 23.4238 6.12891C22.4424 7.11035 21.5708 8.45801 20.8091 10.1719C20.0474 11.8857 19.4468 13.8633 19.0073 16.1045C18.5679 18.3311 18.3481 20.6895 18.3481 23.1797C18.3481 25.6406 18.5679 27.9771 19.0073 30.189C19.4468 32.4009 20.0474 34.3711 20.8091 36.0996C21.5708 37.8135 22.4424 39.1611 23.4238 40.1426C24.4053 41.1387 25.4307 41.6367 26.5 41.6367C27.5693 41.6367 28.5947 41.1387 29.5762 40.1426C30.5576 39.1611 31.4292 37.8135 32.1909 36.0996C32.9526 34.3711 33.5532 32.4009 33.9927 30.189C34.4321 27.9771 34.6519 25.6406 34.6519 23.1797C34.6519 20.6895 34.4321 18.3311 33.9927 16.1045C33.5532 13.8633 32.9526 11.8857 32.1909 10.1719C31.4292 8.45801 30.5576 7.11035 29.5762 6.12891C28.5947 5.13281 27.5693 4.63477 26.5 4.63477ZM25.0718 2.28369H27.9502V43.8999H25.0718V2.28369ZM26.5 31.3975C28.7559 31.3975 30.8945 31.5879 32.916 31.9688C34.9375 32.335 36.7539 32.8696 38.3652 33.5728C39.9912 34.2612 41.3169 35.0742 42.3423 36.0117L40.123 37.8354C39.1562 37.0737 37.9917 36.4292 36.6294 35.9019C35.2817 35.3599 33.751 34.957 32.0371 34.6934C30.3379 34.415 28.4922 34.2759 26.5 34.2759C24.5078 34.2759 22.6548 34.415 20.9409 34.6934C19.2417 34.957 17.7109 35.3599 16.3486 35.9019C15.001 36.4292 13.8438 37.0737 12.877 37.8354L10.6577 36.0117C11.6831 35.0742 13.0015 34.2612 14.6128 33.5728C16.2388 32.8696 18.0625 32.335 20.084 31.9688C22.1055 31.5879 24.2441 31.3975 26.5 31.3975ZM46.7808 21.6855V24.564H6.21924V21.6855H46.7808ZM26.5 14.9839C24.2441 14.9839 22.1055 14.8008 20.084 14.4346C18.0625 14.0537 16.2388 13.519 14.6128 12.8306C13.0015 12.1274 11.6831 11.3071 10.6577 10.3696L12.877 8.5459C13.8438 9.30762 15.001 9.95947 16.3486 10.5015C17.7109 11.0288 19.2417 11.4316 20.9409 11.71C22.6548 11.9736 24.5078 12.1055 26.5 12.1055C28.4922 12.1055 30.3379 11.9736 32.0371 11.71C33.751 11.4316 35.2817 11.0288 36.6294 10.5015C37.9917 9.95947 39.1562 9.30762 40.123 8.5459L42.3423 10.3696C41.3169 11.3071 39.9912 12.1274 38.3652 12.8306C36.7539 13.519 34.9375 14.0537 32.916 14.4346C30.8945 14.8008 28.7559 14.9839 26.5 14.9839ZM26.5 45.5479C23.4092 45.5479 20.5088 44.9619 17.7988 43.79C15.0889 42.6328 12.7085 41.0288 10.6577 38.978C8.60693 36.9272 6.99561 34.5469 5.82373 31.8369C4.6665 29.127 4.08789 26.2266 4.08789 23.1357C4.08789 20.0449 4.6665 17.1445 5.82373 14.4346C6.99561 11.7246 8.60693 9.34424 10.6577 7.29346C12.7085 5.22803 15.0889 3.6167 17.7988 2.45947C20.5088 1.30225 23.4092 0.723633 26.5 0.723633C29.5908 0.723633 32.4912 1.30225 35.2012 2.45947C37.9111 3.6167 40.2915 5.22803 42.3423 7.29346C44.3931 9.34424 45.9971 11.7246 47.1543 14.4346C48.3262 17.1445 48.9121 20.0449 48.9121 23.1357C48.9121 26.2266 48.3262 29.127 47.1543 31.8369C45.9971 34.5469 44.3931 36.9272 42.3423 38.978C40.2915 41.0288 37.9111 42.6328 35.2012 43.79C32.4912 44.9619 29.5908 45.5479 26.5 45.5479ZM26.5 42.5596C29.1807 42.5596 31.6929 42.0542 34.0366 41.0435C36.3804 40.0327 38.4458 38.6411 40.2329 36.8687C42.02 35.0815 43.4116 33.0161 44.4077 30.6724C45.4185 28.3286 45.9238 25.8164 45.9238 23.1357C45.9238 20.4551 45.4185 17.9429 44.4077 15.5991C43.4116 13.2407 42.02 11.1753 40.2329 9.40283C38.4458 7.61572 36.3804 6.22412 34.0366 5.22803C31.6929 4.21729 29.1807 3.71191 26.5 3.71191C23.8193 3.71191 21.3071 4.21729 18.9634 5.22803C16.6196 6.22412 14.5542 7.61572 12.7671 9.40283C10.98 11.1753 9.58105 13.2407 8.57031 15.5991C7.57422 17.9429 7.07617 20.4551 7.07617 23.1357C7.07617 25.8164 7.57422 28.3286 8.57031 30.6724C9.58105 33.0161 10.98 35.0815 12.7671 36.8687C14.5542 38.6411 16.6196 40.0327 18.9634 41.0435C21.3071 42.0542 23.8193 42.5596 26.5 42.5596Z" fill="#FFF"/>
</g>
<defs>
<filter id="filter0_d_269_508" x="0.0878906" y="0.723633" width="52.8242" height="52.8242" filterUnits="userSpaceOnUse" color-interpolation-filters="sRGB">
<feFlood flood-opacity="0" result="BackgroundImageFix"/>
<feColorMatrix in="SourceAlpha" type="matrix" values="0 0 0 0 0 0 0 0 0 0 0 0 0 0 0 0 0 0 127 0" result="hardAlpha"/>
<feOffset dy="4"/>
<feGaussianBlur stdDeviation="2"/>
<feComposite in2="hardAlpha" operator="out"/>
<feColorMatrix type="matrix" values="0 0 0 0 0 0 0 0 0 0 0 0 0 0 0 0 0 0 0.25 0"/>
<feBlend mode="normal" in2="BackgroundImageFix" result="effect1_dropShadow_269_508"/>
<feBlend mode="normal" in="SourceGraphic" in2="effect1_dropShadow_269_508" result="shape"/>
</filter>
</defs>
</svg>
