<svg width="63" height="62" viewBox="0 0 63 62" fill="none" xmlns="http://www.w3.org/2000/svg">
<g filter="url(#filter0_d_0_377)">
<path d="M3.14209 40.5332C2.88232 40.6074 2.63184 40.5796 2.39062 40.4497C2.14941 40.3013 1.9917 40.0693 1.91748 39.7539C1.50928 38.2324 1.22168 36.5068 1.05469 34.5771C0.90625 32.6475 0.841309 30.8662 0.859863 29.2334C0.878418 28.9736 0.971191 28.7603 1.13818 28.5933C1.30518 28.4077 1.53711 28.3149 1.83398 28.3149C2.1123 28.3149 2.32568 28.4077 2.47412 28.5933C2.64111 28.7603 2.72461 28.9829 2.72461 29.2612C2.70605 31.0054 2.771 32.7773 2.91943 34.5771C3.06787 36.377 3.31836 37.917 3.6709 39.1973C3.78223 39.5684 3.78223 39.8652 3.6709 40.0879C3.55957 40.3105 3.3833 40.459 3.14209 40.5332ZM2.30713 24.6411C2.06592 24.5298 1.88965 24.3442 1.77832 24.0845C1.68555 23.8247 1.7041 23.5278 1.83398 23.1938C2.98438 19.7983 4.52441 16.8481 6.4541 14.3433C8.40234 11.8384 10.6196 9.76025 13.106 8.10889C15.5923 6.45752 18.2363 5.22363 21.0381 4.40723C23.8584 3.59082 26.7251 3.18262 29.6382 3.18262C32.5513 3.18262 35.0933 3.5166 37.2642 4.18457C39.4351 4.85254 41.3369 5.72461 42.9697 6.80078C43.1924 6.94922 43.3687 7.13477 43.4985 7.35742C43.6284 7.56152 43.6377 7.79346 43.5264 8.05322C43.415 8.31299 43.2202 8.48926 42.9419 8.58203C42.6821 8.65625 42.4224 8.60986 42.1626 8.44287C40.7153 7.47803 38.9619 6.6709 36.9023 6.02148C34.8428 5.37207 32.4214 5.04736 29.6382 5.04736C26.02 5.04736 22.4854 5.74316 19.0342 7.13477C15.6016 8.50781 12.5308 10.5952 9.82178 13.397C7.11279 16.1987 5.03467 19.752 3.5874 24.0566C3.49463 24.3535 3.31836 24.5483 3.05859 24.6411C2.79883 24.7339 2.54834 24.7339 2.30713 24.6411ZM58.2495 33.7422C57.9897 33.7422 57.7764 33.6494 57.6094 33.4639C57.4424 33.2598 57.3403 33.0093 57.3032 32.7124C56.8579 27.981 55.7261 23.8711 53.9077 20.3828C52.1079 16.8945 49.7422 13.8608 46.8105 11.2817C46.5693 11.0962 46.4487 10.8643 46.4487 10.5859C46.4487 10.3076 46.5415 10.0757 46.7271 9.89014C46.9126 9.72314 47.1353 9.64893 47.395 9.66748C47.6548 9.68604 47.896 9.78809 48.1187 9.97363C50.104 11.625 51.8574 13.5825 53.3789 15.8462C54.9189 18.1099 56.1807 20.6519 57.1641 23.4722C58.166 26.2925 58.834 29.3633 59.168 32.6846C59.1865 32.9814 59.103 33.2319 58.9175 33.436C58.7319 33.6401 58.5093 33.7422 58.2495 33.7422ZM6.98291 48.521C6.83447 48.3169 6.77881 48.0942 6.81592 47.853C6.85303 47.5933 6.97363 47.3799 7.17773 47.2129C7.86426 46.6006 8.40234 45.8491 8.79199 44.9585C9.18164 44.0493 9.37646 43.1309 9.37646 42.2031C9.35791 41.2012 9.2002 40.1621 8.90332 39.0859C8.625 38.0098 8.34668 36.8501 8.06836 35.6069C7.79004 34.3452 7.65088 32.9165 7.65088 31.3208C7.65088 28.4634 8.2168 25.7544 9.34863 23.1938C10.4805 20.6147 12.0391 18.3418 14.0244 16.375C16.0098 14.3896 18.292 12.8311 20.8711 11.6992C23.4502 10.5488 26.1777 9.97363 29.0537 9.97363C32.8018 9.97363 36.1416 10.6602 39.0732 12.0332C42.0234 13.4062 44.5283 15.3452 46.5879 17.8501C48.6475 20.3364 50.2153 23.2866 51.2915 26.7007C52.3862 30.1147 52.9336 33.8721 52.9336 37.9727C52.9336 40.7002 52.7295 43.27 52.3213 45.6821C51.9316 48.0757 51.4028 50.2373 50.7349 52.167C50.6235 52.4639 50.438 52.6494 50.1782 52.7236C49.937 52.8164 49.7051 52.8257 49.4824 52.7515C49.2783 52.6587 49.1206 52.4917 49.0093 52.2505C48.8979 52.0093 48.9072 51.7217 49.0371 51.3877C49.6865 49.625 50.1968 47.6118 50.5679 45.3481C50.939 43.0659 51.1152 40.5981 51.0967 37.9448C51.0596 32.8423 50.1597 28.3242 48.397 24.3906C46.6528 20.457 44.1387 17.377 40.8545 15.1504C37.5889 12.9053 33.6553 11.7827 29.0537 11.7827C26.4375 11.7827 23.9419 12.3115 21.5669 13.3691C19.2104 14.4082 17.123 15.8369 15.3047 17.6553C13.4863 19.4736 12.0576 21.561 11.0186 23.9175C9.97949 26.2554 9.45996 28.7231 9.45996 31.3208C9.45996 33.0649 9.59912 34.4937 9.87744 35.6069C10.1558 36.7202 10.4341 37.7686 10.7124 38.752C10.9907 39.7354 11.1484 40.8857 11.1855 42.2031C11.1855 43.3721 10.9536 44.5503 10.4897 45.7378C10.0259 46.9253 9.33008 47.9087 8.40234 48.688C8.16113 48.8921 7.89209 48.9756 7.59521 48.9385C7.31689 48.9014 7.11279 48.7622 6.98291 48.521ZM12.4937 53.4473C12.2339 53.5957 11.9834 53.6328 11.7422 53.5586C11.5195 53.4844 11.3433 53.3452 11.2134 53.1411C11.1021 52.9556 11.0742 52.7329 11.1299 52.4731C11.1855 52.2134 11.3618 51.9722 11.6587 51.7495C12.6421 51.063 13.5513 50.2095 14.3862 49.189C15.2212 48.1499 15.8335 46.8882 16.2231 45.4038C16.2974 45.1255 16.4365 44.9307 16.6406 44.8193C16.8447 44.6895 17.0581 44.6523 17.2808 44.708C17.5405 44.7822 17.7354 44.9214 17.8652 45.1255C18.0137 45.3296 18.0601 45.5801 18.0044 45.877C17.7632 46.8789 17.3364 47.8994 16.7241 48.9385C16.1118 49.959 15.4253 50.8774 14.6646 51.6938C13.9038 52.4917 13.1802 53.0762 12.4937 53.4473ZM18.1992 39.7539C18.3105 40.0137 18.3198 40.2734 18.2271 40.5332C18.1343 40.7744 17.9673 40.9414 17.7261 41.0342C17.4663 41.127 17.2158 41.127 16.9746 41.0342C16.7334 40.9414 16.5479 40.7466 16.418 40.4497C15.7686 38.854 15.2676 37.3511 14.915 35.9409C14.5811 34.5122 14.4141 33.1855 14.4141 31.9609C14.4141 29.6973 14.7852 27.6377 15.5273 25.7822C16.2695 23.9082 17.3179 22.2939 18.6724 20.9395C20.0269 19.585 21.6318 18.5459 23.4873 17.8223C25.3428 17.0801 27.3931 16.709 29.6382 16.709C31.0298 16.709 32.3843 16.8945 33.7017 17.2656C35.019 17.6182 36.2251 18.147 37.3198 18.8521C37.6909 19.1118 37.8857 19.3809 37.9043 19.6592C37.9414 19.9189 37.895 20.1416 37.7651 20.3271C37.6724 20.5127 37.5054 20.6333 37.2642 20.689C37.0229 20.7446 36.7632 20.689 36.4849 20.522C35.7983 20.0952 35.0933 19.7334 34.3696 19.4365C33.6646 19.1211 32.9131 18.8892 32.1152 18.7407C31.3359 18.5923 30.5103 18.5181 29.6382 18.5181C27.0034 18.5181 24.6748 19.0933 22.6523 20.2437C20.6484 21.3755 19.0713 22.9526 17.9209 24.9751C16.7891 26.979 16.2231 29.3076 16.2231 31.9609C16.2231 33.334 16.4365 34.6978 16.8633 36.0522C17.29 37.4067 17.7354 38.6406 18.1992 39.7539ZM40.4092 24.001C40.2422 23.7227 40.1865 23.4536 40.2422 23.1938C40.2979 22.9341 40.437 22.7393 40.6597 22.6094C40.8638 22.4795 41.0957 22.4517 41.3555 22.5259C41.6338 22.5815 41.875 22.7671 42.0791 23.0825C42.9512 24.4556 43.6934 26.0049 44.3057 27.7305C44.918 29.4561 45.3818 31.3301 45.6973 33.3525C46.0127 35.375 46.1704 37.4995 46.1704 39.7261C46.1704 43.2144 45.7158 46.6006 44.8066 49.8848C43.8975 53.1504 42.5801 55.9707 40.8545 58.3457C40.6689 58.5869 40.4185 58.6982 40.103 58.6797C39.8062 58.6797 39.5742 58.5684 39.4072 58.3457C39.2217 58.1602 39.1382 57.9375 39.1567 57.6777C39.1753 57.418 39.2681 57.1768 39.4351 56.9541C41.0122 54.8018 42.2183 52.2041 43.0532 49.1611C43.9067 46.1182 44.3335 42.9917 44.3335 39.7817C44.3335 36.7388 44.0088 33.835 43.3594 31.0703C42.71 28.3057 41.7266 25.9492 40.4092 24.001ZM18.1992 56.9819C17.9395 57.2046 17.6704 57.2974 17.3921 57.2603C17.1323 57.2231 16.9282 57.084 16.7798 56.8428C16.6313 56.6758 16.5664 56.4531 16.585 56.1748C16.6221 55.915 16.7612 55.6924 17.0024 55.5068C18.9136 53.9482 20.3887 52 21.4277 49.6621C22.4668 47.3057 22.9771 44.7358 22.9585 41.9526C22.9399 40.6538 22.7915 39.3828 22.5132 38.1396C22.2349 36.8965 21.9565 35.7275 21.6782 34.6328C21.3999 33.5195 21.2607 32.499 21.2607 31.5713C21.2607 29.957 21.6133 28.5469 22.3184 27.3408C23.042 26.1348 24.0068 25.1978 25.2129 24.5298C26.4375 23.8618 27.8291 23.5278 29.3877 23.5278C31.5771 23.5278 33.3862 24.1494 34.8149 25.3926C36.2622 26.6357 37.3384 28.4355 38.0435 30.792C38.7485 33.1299 39.1104 35.9502 39.1289 39.2529C39.1289 42.1846 38.7949 44.9863 38.127 47.6582C37.459 50.3301 36.5405 52.7422 35.3716 54.8945C34.2212 57.0469 32.8945 58.8096 31.3916 60.1826C31.1689 60.3867 30.9185 60.4702 30.6401 60.4331C30.3618 60.396 30.1484 60.2754 30 60.0713C29.8701 59.9043 29.8145 59.7095 29.833 59.4868C29.8516 59.2642 29.9629 59.0601 30.167 58.8745C31.5029 57.5942 32.7183 55.9893 33.813 54.0596C34.9077 52.1299 35.7705 49.9219 36.4014 47.4355C37.0508 44.9492 37.3662 42.2402 37.3477 39.3086C37.3291 36.377 37.0322 33.8721 36.457 31.7939C35.8818 29.7158 35.0005 28.1294 33.813 27.0347C32.644 25.9214 31.1689 25.3647 29.3877 25.3647C27.5508 25.3647 26.0386 25.9399 24.8511 27.0903C23.6821 28.2222 23.0977 29.7344 23.0977 31.627C23.0977 32.5361 23.2275 33.501 23.4873 34.5215C23.7656 35.5234 24.0439 36.6274 24.3223 37.8335C24.6191 39.0396 24.7676 40.4126 24.7676 41.9526C24.7861 45.0327 24.2202 47.8809 23.0698 50.4971C21.938 53.1133 20.3145 55.2749 18.1992 56.9819ZM24.2109 59.2085C23.9697 59.4126 23.71 59.4961 23.4316 59.459C23.1533 59.4219 22.9492 59.2734 22.8193 59.0137C22.6709 58.8096 22.6245 58.5776 22.6802 58.3179C22.7544 58.0767 22.9028 57.8726 23.1255 57.7056C24.1274 56.9634 25.1016 55.9614 26.0479 54.6997C26.9941 53.438 27.8662 51.7495 28.6641 49.6343C28.7568 49.3745 28.9146 49.1982 29.1372 49.1055C29.3784 49.0127 29.6196 49.0034 29.8608 49.0776C30.1021 49.1519 30.2598 49.3096 30.334 49.5508C30.4268 49.792 30.4268 50.0518 30.334 50.3301C29.5547 52.5381 28.6177 54.3657 27.5229 55.813C26.4468 57.2788 25.3428 58.4106 24.2109 59.2085ZM31.8647 44.708C31.7905 45.0049 31.6421 45.2368 31.4194 45.4038C31.2153 45.5522 30.9741 45.5986 30.6958 45.543C30.3989 45.4688 30.1948 45.3296 30.0835 45.1255C29.9907 44.9214 29.9722 44.6895 30.0278 44.4297C30.3062 43.3906 30.4453 42.2124 30.4453 40.895C30.4453 39.5776 30.3154 38.2417 30.0557 36.8872C29.7959 35.5142 29.4248 34.2432 28.9424 33.0742C28.8311 32.7959 28.8311 32.5361 28.9424 32.2949C29.0537 32.0352 29.2393 31.8682 29.499 31.7939C29.7402 31.7012 29.9814 31.7012 30.2227 31.7939C30.4639 31.8867 30.6587 32.1279 30.8071 32.5176C31.3081 33.7236 31.6885 35.0688 31.9482 36.5532C32.208 38.019 32.3286 39.4663 32.3101 40.895C32.3101 42.3237 32.1616 43.5947 31.8647 44.708Z" fill="#E4CFC1"/>
</g>
<defs>
<filter id="filter0_d_0_377" x="0.832031" y="0.482617" width="62.0638" height="60.7062" filterUnits="userSpaceOnUse" color-interpolation-filters="sRGB">
<feFlood flood-opacity="0" result="BackgroundImageFix"/>
<feColorMatrix in="SourceAlpha" type="matrix" values="0 0 0 0 0 0 0 0 0 0 0 0 0 0 0 0 0 0 127 0" result="hardAlpha"/>
<feOffset dx="2" dy="-1"/>
<feGaussianBlur stdDeviation="0.85"/>
<feComposite in2="hardAlpha" operator="out"/>
<feColorMatrix type="matrix" values="0 0 0 0 0.54152 0 0 0 0 0.287251 0 0 0 0 0.287251 0 0 0 1 0"/>
<feBlend mode="normal" in2="BackgroundImageFix" result="effect1_dropShadow_0_377"/>
<feBlend mode="normal" in="SourceGraphic" in2="effect1_dropShadow_0_377" result="shape"/>
</filter>
</defs>
</svg>
