<svg width="64" height="64" viewBox="0 0 64 64" fill="none" xmlns="http://www.w3.org/2000/svg">
<g style="mix-blend-mode:soft-light" filter="url(#filter0_d_83_214)">
<path d="M3.14209 37.5332C2.88232 37.6074 2.63184 37.5796 2.39062 37.4497C2.14941 37.3013 1.9917 37.0693 1.91748 36.7539C1.50928 35.2324 1.22168 33.5068 1.05469 31.5771C0.90625 29.6475 0.841309 27.8662 0.859863 26.2334C0.878418 25.9736 0.971191 25.7603 1.13818 25.5933C1.30518 25.4077 1.53711 25.3149 1.83398 25.3149C2.1123 25.3149 2.32568 25.4077 2.47412 25.5933C2.64111 25.7603 2.72461 25.9829 2.72461 26.2612C2.70605 28.0054 2.771 29.7773 2.91943 31.5771C3.06787 33.377 3.31836 34.917 3.6709 36.1973C3.78223 36.5684 3.78223 36.8652 3.6709 37.0879C3.55957 37.3105 3.3833 37.459 3.14209 37.5332ZM2.30713 21.6411C2.06592 21.5298 1.88965 21.3442 1.77832 21.0845C1.68555 20.8247 1.7041 20.5278 1.83398 20.1938C2.98438 16.7983 4.52441 13.8481 6.4541 11.3433C8.40234 8.83838 10.6196 6.76025 13.106 5.10889C15.5923 3.45752 18.2363 2.22363 21.0381 1.40723C23.8584 0.59082 26.7251 0.182617 29.6382 0.182617C32.5513 0.182617 35.0933 0.516602 37.2642 1.18457C39.4351 1.85254 41.3369 2.72461 42.9697 3.80078C43.1924 3.94922 43.3687 4.13477 43.4985 4.35742C43.6284 4.56152 43.6377 4.79346 43.5264 5.05322C43.415 5.31299 43.2202 5.48926 42.9419 5.58203C42.6821 5.65625 42.4224 5.60986 42.1626 5.44287C40.7153 4.47803 38.9619 3.6709 36.9023 3.02148C34.8428 2.37207 32.4214 2.04736 29.6382 2.04736C26.02 2.04736 22.4854 2.74316 19.0342 4.13477C15.6016 5.50781 12.5308 7.59521 9.82178 10.397C7.11279 13.1987 5.03467 16.752 3.5874 21.0566C3.49463 21.3535 3.31836 21.5483 3.05859 21.6411C2.79883 21.7339 2.54834 21.7339 2.30713 21.6411ZM58.2495 30.7422C57.9897 30.7422 57.7764 30.6494 57.6094 30.4639C57.4424 30.2598 57.3403 30.0093 57.3032 29.7124C56.8579 24.981 55.7261 20.8711 53.9077 17.3828C52.1079 13.8945 49.7422 10.8608 46.8105 8.28174C46.5693 8.09619 46.4487 7.86426 46.4487 7.58594C46.4487 7.30762 46.5415 7.07568 46.7271 6.89014C46.9126 6.72314 47.1353 6.64893 47.395 6.66748C47.6548 6.68604 47.896 6.78809 48.1187 6.97363C50.104 8.625 51.8574 10.5825 53.3789 12.8462C54.9189 15.1099 56.1807 17.6519 57.1641 20.4722C58.166 23.2925 58.834 26.3633 59.168 29.6846C59.1865 29.9814 59.103 30.2319 58.9175 30.436C58.7319 30.6401 58.5093 30.7422 58.2495 30.7422ZM6.98291 45.521C6.83447 45.3169 6.77881 45.0942 6.81592 44.853C6.85303 44.5933 6.97363 44.3799 7.17773 44.2129C7.86426 43.6006 8.40234 42.8491 8.79199 41.9585C9.18164 41.0493 9.37646 40.1309 9.37646 39.2031C9.35791 38.2012 9.2002 37.1621 8.90332 36.0859C8.625 35.0098 8.34668 33.8501 8.06836 32.6069C7.79004 31.3452 7.65088 29.9165 7.65088 28.3208C7.65088 25.4634 8.2168 22.7544 9.34863 20.1938C10.4805 17.6147 12.0391 15.3418 14.0244 13.375C16.0098 11.3896 18.292 9.83105 20.8711 8.69922C23.4502 7.54883 26.1777 6.97363 29.0537 6.97363C32.8018 6.97363 36.1416 7.66016 39.0732 9.0332C42.0234 10.4062 44.5283 12.3452 46.5879 14.8501C48.6475 17.3364 50.2153 20.2866 51.2915 23.7007C52.3862 27.1147 52.9336 30.8721 52.9336 34.9727C52.9336 37.7002 52.7295 40.27 52.3213 42.6821C51.9316 45.0757 51.4028 47.2373 50.7349 49.167C50.6235 49.4639 50.438 49.6494 50.1782 49.7236C49.937 49.8164 49.7051 49.8257 49.4824 49.7515C49.2783 49.6587 49.1206 49.4917 49.0093 49.2505C48.8979 49.0093 48.9072 48.7217 49.0371 48.3877C49.6865 46.625 50.1968 44.6118 50.5679 42.3481C50.939 40.0659 51.1152 37.5981 51.0967 34.9448C51.0596 29.8423 50.1597 25.3242 48.397 21.3906C46.6528 17.457 44.1387 14.377 40.8545 12.1504C37.5889 9.90527 33.6553 8.78271 29.0537 8.78271C26.4375 8.78271 23.9419 9.31152 21.5669 10.3691C19.2104 11.4082 17.123 12.8369 15.3047 14.6553C13.4863 16.4736 12.0576 18.561 11.0186 20.9175C9.97949 23.2554 9.45996 25.7231 9.45996 28.3208C9.45996 30.0649 9.59912 31.4937 9.87744 32.6069C10.1558 33.7202 10.4341 34.7686 10.7124 35.752C10.9907 36.7354 11.1484 37.8857 11.1855 39.2031C11.1855 40.3721 10.9536 41.5503 10.4897 42.7378C10.0259 43.9253 9.33008 44.9087 8.40234 45.688C8.16113 45.8921 7.89209 45.9756 7.59521 45.9385C7.31689 45.9014 7.11279 45.7622 6.98291 45.521ZM12.4937 50.4473C12.2339 50.5957 11.9834 50.6328 11.7422 50.5586C11.5195 50.4844 11.3433 50.3452 11.2134 50.1411C11.1021 49.9556 11.0742 49.7329 11.1299 49.4731C11.1855 49.2134 11.3618 48.9722 11.6587 48.7495C12.6421 48.063 13.5513 47.2095 14.3862 46.189C15.2212 45.1499 15.8335 43.8882 16.2231 42.4038C16.2974 42.1255 16.4365 41.9307 16.6406 41.8193C16.8447 41.6895 17.0581 41.6523 17.2808 41.708C17.5405 41.7822 17.7354 41.9214 17.8652 42.1255C18.0137 42.3296 18.0601 42.5801 18.0044 42.877C17.7632 43.8789 17.3364 44.8994 16.7241 45.9385C16.1118 46.959 15.4253 47.8774 14.6646 48.6938C13.9038 49.4917 13.1802 50.0762 12.4937 50.4473ZM18.1992 36.7539C18.3105 37.0137 18.3198 37.2734 18.2271 37.5332C18.1343 37.7744 17.9673 37.9414 17.7261 38.0342C17.4663 38.127 17.2158 38.127 16.9746 38.0342C16.7334 37.9414 16.5479 37.7466 16.418 37.4497C15.7686 35.854 15.2676 34.3511 14.915 32.9409C14.5811 31.5122 14.4141 30.1855 14.4141 28.9609C14.4141 26.6973 14.7852 24.6377 15.5273 22.7822C16.2695 20.9082 17.3179 19.2939 18.6724 17.9395C20.0269 16.585 21.6318 15.5459 23.4873 14.8223C25.3428 14.0801 27.3931 13.709 29.6382 13.709C31.0298 13.709 32.3843 13.8945 33.7017 14.2656C35.019 14.6182 36.2251 15.147 37.3198 15.8521C37.6909 16.1118 37.8857 16.3809 37.9043 16.6592C37.9414 16.9189 37.895 17.1416 37.7651 17.3271C37.6724 17.5127 37.5054 17.6333 37.2642 17.689C37.0229 17.7446 36.7632 17.689 36.4849 17.522C35.7983 17.0952 35.0933 16.7334 34.3696 16.4365C33.6646 16.1211 32.9131 15.8892 32.1152 15.7407C31.3359 15.5923 30.5103 15.5181 29.6382 15.5181C27.0034 15.5181 24.6748 16.0933 22.6523 17.2437C20.6484 18.3755 19.0713 19.9526 17.9209 21.9751C16.7891 23.979 16.2231 26.3076 16.2231 28.9609C16.2231 30.334 16.4365 31.6978 16.8633 33.0522C17.29 34.4067 17.7354 35.6406 18.1992 36.7539ZM40.4092 21.001C40.2422 20.7227 40.1865 20.4536 40.2422 20.1938C40.2979 19.9341 40.437 19.7393 40.6597 19.6094C40.8638 19.4795 41.0957 19.4517 41.3555 19.5259C41.6338 19.5815 41.875 19.7671 42.0791 20.0825C42.9512 21.4556 43.6934 23.0049 44.3057 24.7305C44.918 26.4561 45.3818 28.3301 45.6973 30.3525C46.0127 32.375 46.1704 34.4995 46.1704 36.7261C46.1704 40.2144 45.7158 43.6006 44.8066 46.8848C43.8975 50.1504 42.5801 52.9707 40.8545 55.3457C40.6689 55.5869 40.4185 55.6982 40.103 55.6797C39.8062 55.6797 39.5742 55.5684 39.4072 55.3457C39.2217 55.1602 39.1382 54.9375 39.1567 54.6777C39.1753 54.418 39.2681 54.1768 39.4351 53.9541C41.0122 51.8018 42.2183 49.2041 43.0532 46.1611C43.9067 43.1182 44.3335 39.9917 44.3335 36.7817C44.3335 33.7388 44.0088 30.835 43.3594 28.0703C42.71 25.3057 41.7266 22.9492 40.4092 21.001ZM18.1992 53.9819C17.9395 54.2046 17.6704 54.2974 17.3921 54.2603C17.1323 54.2231 16.9282 54.084 16.7798 53.8428C16.6313 53.6758 16.5664 53.4531 16.585 53.1748C16.6221 52.915 16.7612 52.6924 17.0024 52.5068C18.9136 50.9482 20.3887 49 21.4277 46.6621C22.4668 44.3057 22.9771 41.7358 22.9585 38.9526C22.9399 37.6538 22.7915 36.3828 22.5132 35.1396C22.2349 33.8965 21.9565 32.7275 21.6782 31.6328C21.3999 30.5195 21.2607 29.499 21.2607 28.5713C21.2607 26.957 21.6133 25.5469 22.3184 24.3408C23.042 23.1348 24.0068 22.1978 25.2129 21.5298C26.4375 20.8618 27.8291 20.5278 29.3877 20.5278C31.5771 20.5278 33.3862 21.1494 34.8149 22.3926C36.2622 23.6357 37.3384 25.4355 38.0435 27.792C38.7485 30.1299 39.1104 32.9502 39.1289 36.2529C39.1289 39.1846 38.7949 41.9863 38.127 44.6582C37.459 47.3301 36.5405 49.7422 35.3716 51.8945C34.2212 54.0469 32.8945 55.8096 31.3916 57.1826C31.1689 57.3867 30.9185 57.4702 30.6401 57.4331C30.3618 57.396 30.1484 57.2754 30 57.0713C29.8701 56.9043 29.8145 56.7095 29.833 56.4868C29.8516 56.2642 29.9629 56.0601 30.167 55.8745C31.5029 54.5942 32.7183 52.9893 33.813 51.0596C34.9077 49.1299 35.7705 46.9219 36.4014 44.4355C37.0508 41.9492 37.3662 39.2402 37.3477 36.3086C37.3291 33.377 37.0322 30.8721 36.457 28.7939C35.8818 26.7158 35.0005 25.1294 33.813 24.0347C32.644 22.9214 31.1689 22.3647 29.3877 22.3647C27.5508 22.3647 26.0386 22.9399 24.8511 24.0903C23.6821 25.2222 23.0977 26.7344 23.0977 28.627C23.0977 29.5361 23.2275 30.501 23.4873 31.5215C23.7656 32.5234 24.0439 33.6274 24.3223 34.8335C24.6191 36.0396 24.7676 37.4126 24.7676 38.9526C24.7861 42.0327 24.2202 44.8809 23.0698 47.4971C21.938 50.1133 20.3145 52.2749 18.1992 53.9819ZM24.2109 56.2085C23.9697 56.4126 23.71 56.4961 23.4316 56.459C23.1533 56.4219 22.9492 56.2734 22.8193 56.0137C22.6709 55.8096 22.6245 55.5776 22.6802 55.3179C22.7544 55.0767 22.9028 54.8726 23.1255 54.7056C24.1274 53.9634 25.1016 52.9614 26.0479 51.6997C26.9941 50.438 27.8662 48.7495 28.6641 46.6343C28.7568 46.3745 28.9146 46.1982 29.1372 46.1055C29.3784 46.0127 29.6196 46.0034 29.8608 46.0776C30.1021 46.1519 30.2598 46.3096 30.334 46.5508C30.4268 46.792 30.4268 47.0518 30.334 47.3301C29.5547 49.5381 28.6177 51.3657 27.5229 52.813C26.4468 54.2788 25.3428 55.4106 24.2109 56.2085ZM31.8647 41.708C31.7905 42.0049 31.6421 42.2368 31.4194 42.4038C31.2153 42.5522 30.9741 42.5986 30.6958 42.543C30.3989 42.4688 30.1948 42.3296 30.0835 42.1255C29.9907 41.9214 29.9722 41.6895 30.0278 41.4297C30.3062 40.3906 30.4453 39.2124 30.4453 37.895C30.4453 36.5776 30.3154 35.2417 30.0557 33.8872C29.7959 32.5142 29.4248 31.2432 28.9424 30.0742C28.8311 29.7959 28.8311 29.5361 28.9424 29.2949C29.0537 29.0352 29.2393 28.8682 29.499 28.7939C29.7402 28.7012 29.9814 28.7012 30.2227 28.7939C30.4639 28.8867 30.6587 29.1279 30.8071 29.5176C31.3081 30.7236 31.6885 32.0688 31.9482 33.5532C32.208 35.019 32.3286 36.4663 32.3101 37.895C32.3101 39.3237 32.1616 40.5947 31.8647 41.708Z" fill="#EDEDED"/>
</g>
<defs>
<filter id="filter0_d_83_214" x="0.332031" y="0.182617" width="63.3638" height="63.8062" filterUnits="userSpaceOnUse" color-interpolation-filters="sRGB">
<feFlood flood-opacity="0" result="BackgroundImageFix"/>
<feColorMatrix in="SourceAlpha" type="matrix" values="0 0 0 0 0 0 0 0 0 0 0 0 0 0 0 0 0 0 127 0" result="hardAlpha"/>
<feOffset dx="2" dy="4"/>
<feGaussianBlur stdDeviation="1.25"/>
<feComposite in2="hardAlpha" operator="out"/>
<feColorMatrix type="matrix" values="0 0 0 0 0 0 0 0 0 0 0 0 0 0 0 0 0 0 0.67 0"/>
<feBlend mode="normal" in2="BackgroundImageFix" result="effect1_dropShadow_83_214"/>
<feBlend mode="normal" in="SourceGraphic" in2="effect1_dropShadow_83_214" result="shape"/>
</filter>
</defs>
</svg>
